<?xml version="1.0" standalone="no"?>
<!DOCTYPE svg PUBLIC "-//W3C//DTD SVG 20010904//EN"
 "http://www.w3.org/TR/2001/REC-SVG-20010904/DTD/svg10.dtd">
<svg version="1.0" xmlns="http://www.w3.org/2000/svg"
 width="700.000000pt" height="700.000000pt" viewBox="0 0 700.000000 700.000000"
 preserveAspectRatio="xMidYMid meet">
<metadata>
Created by potrace 1.14, written by Peter Selinger 2001-2017
</metadata>
<g transform="translate(0.000000,700.000000) scale(0.100000,-0.100000)"
fill="#000000" stroke="none">
<path d="M2877 5944 c-1 -1 -67 -5 -147 -8 -80 -4 -161 -9 -180 -11 -19 -2
-66 -6 -105 -9 -38 -4 -81 -8 -95 -11 -14 -2 -50 -7 -81 -10 -31 -3 -65 -7
-75 -9 -11 -2 -39 -7 -64 -11 -25 -3 -58 -9 -75 -11 -64 -10 -265 -56 -373
-85 -433 -115 -832 -299 -1142 -528 -19 -14 -37 -28 -40 -31 -3 -3 -27 -23
-55 -45 -159 -126 -370 -348 -411 -431 -45 -92 -33 -196 24 -211 42 -10 136
13 224 56 78 38 199 111 236 144 9 8 49 31 87 52 39 21 75 41 80 45 10 7 200
114 318 178 32 18 63 32 69 32 6 0 19 6 27 14 18 15 220 102 356 152 183 69
502 155 665 180 19 3 42 7 50 9 8 2 38 7 65 11 28 3 57 7 65 9 58 10 142 21
245 31 39 3 84 8 100 10 179 23 741 22 1015 -1 190 -16 294 -29 485 -60 100
-17 97 -16 210 -40 85 -17 260 -60 310 -75 364 -113 585 -230 755 -402 126
-127 180 -252 186 -433 5 -178 -34 -329 -124 -477 -93 -155 -265 -315 -487
-456 -11 -7 -72 -38 -136 -71 -141 -71 -285 -128 -445 -175 -104 -30 -143 -40
-234 -61 -8 -2 -53 -12 -100 -23 -111 -27 -323 -64 -429 -77 -30 -4 -62 -8
-71 -10 -9 -2 -53 -7 -96 -11 -43 -3 -92 -8 -109 -10 -153 -15 -636 -21 -715
-9 -14 2 -31 4 -39 4 -11 1 -12 23 -7 126 4 69 9 136 11 148 2 12 6 45 9 72 5
53 43 314 51 354 2 14 7 47 10 75 3 28 8 74 11 101 22 204 19 366 -7 450 -49
163 -173 276 -317 290 -46 4 -56 2 -77 -19 -22 -22 -37 -62 -49 -131 -3 -16
-8 -39 -10 -50 -2 -11 -7 -40 -11 -65 -4 -25 -9 -54 -11 -65 -4 -27 -43 -283
-48 -320 -3 -16 -8 -52 -11 -80 -4 -27 -8 -61 -10 -75 -4 -29 -24 -178 -30
-230 -2 -19 -7 -53 -9 -75 -3 -22 -9 -80 -12 -130 -4 -49 -8 -101 -9 -115 -1
-14 -3 -34 -4 -46 -1 -21 -2 -21 -73 -7 -105 20 -238 14 -275 -13 -95 -71 17
-204 264 -313 l68 -30 2 -98 c2 -150 13 -471 18 -533 6 -85 15 -172 20 -200 3
-14 7 -43 10 -65 18 -156 59 -334 87 -386 39 -71 91 -72 142 -6 56 73 122 307
160 562 14 93 21 153 32 250 3 33 8 68 10 78 1 9 6 56 9 105 4 48 10 91 15 95
9 10 79 -3 240 -44 344 -89 779 -259 1330 -521 121 -58 523 -257 560 -278 14
-8 27 -15 30 -15 7 -1 140 -70 187 -96 91 -52 951 -482 1084 -542 302 -137
409 -166 624 -169 203 -2 355 75 355 179 0 69 -41 116 -132 151 -29 11 -150
57 -268 103 -173 66 -812 330 -895 369 -23 11 -742 320 -1255 540 -391 167
-524 223 -660 275 -52 20 -104 40 -115 45 -11 5 -41 16 -68 26 -26 9 -46 18
-45 19 2 2 34 6 71 10 37 3 76 8 85 9 9 2 40 7 67 10 137 19 236 39 400 81
629 161 1083 389 1407 707 170 166 284 342 352 538 78 229 73 517 -14 721
-145 341 -508 628 -1021 805 -177 61 -508 149 -674 179 -101 18 -328 54 -375
60 -30 4 -66 8 -80 10 -72 10 -227 25 -310 30 -179 12 -576 25 -583 19z"/>
</g>
</svg>
