<?xml version="1.0" standalone="no"?>
<!DOCTYPE svg PUBLIC "-//W3C//DTD SVG 20010904//EN"
 "http://www.w3.org/TR/2001/REC-SVG-20010904/DTD/svg10.dtd">
<svg version="1.0" xmlns="http://www.w3.org/2000/svg"
 width="1064.000000pt" height="1064.000000pt" viewBox="0 0 1064.000000 1064.000000"
 preserveAspectRatio="xMidYMid meet">
<metadata>
Created by potrace 1.14, written by Peter Selinger 2001-2017
</metadata>
<g transform="translate(0.000000,1064.000000) scale(0.100000,-0.100000)"
fill="#000000" stroke="none">
<path d="M4198 9035 c-2 -2 -58 -7 -123 -10 -66 -3 -145 -8 -175 -10 -30 -3
-80 -8 -110 -10 -75 -6 -139 -13 -240 -25 -173 -21 -219 -27 -260 -35 -14 -3
-42 -7 -62 -9 -45 -6 -124 -20 -253 -46 -27 -5 -61 -12 -75 -14 -38 -7 -70
-15 -88 -20 -9 -3 -29 -7 -43 -10 -36 -6 -292 -74 -369 -97 -36 -11 -72 -22
-81 -24 -8 -2 -32 -10 -52 -19 -20 -8 -37 -13 -37 -11 0 2 -44 -12 -97 -31
-54 -20 -102 -37 -108 -38 -5 -2 -23 -8 -40 -15 -16 -7 -66 -26 -110 -42 -44
-17 -84 -34 -90 -39 -5 -4 -21 -11 -34 -15 -28 -8 -219 -98 -341 -160 -79 -40
-102 -52 -195 -105 -19 -11 -50 -28 -68 -39 -40 -23 -159 -98 -172 -109 -6 -5
-24 -17 -40 -28 -17 -10 -34 -22 -40 -26 -5 -5 -46 -35 -90 -68 -93 -69 -120
-91 -156 -122 -15 -13 -48 -41 -75 -63 -64 -52 -324 -313 -394 -394 -30 -35
-60 -69 -67 -76 -25 -26 -80 -122 -94 -165 -8 -25 -14 -79 -14 -120 0 -62 4
-81 23 -107 52 -73 196 -52 424 62 105 53 280 161 286 177 2 4 10 8 18 8 8 0
14 4 14 8 0 5 30 26 67 48 37 21 76 44 87 51 12 7 37 20 56 30 19 10 37 20 40
23 5 5 22 15 99 58 25 13 58 34 74 44 15 11 27 16 27 12 0 -4 8 0 18 8 9 8 37
26 62 39 25 13 53 30 63 38 9 8 17 10 17 5 0 -5 4 -4 8 2 8 12 453 234 468
234 6 0 34 11 62 25 29 14 54 25 58 25 3 0 30 11 61 26 31 14 69 28 84 31 16
3 29 9 29 13 0 3 6 7 13 8 6 0 89 27 182 59 166 58 308 101 430 130 79 19 77
19 98 28 10 4 21 5 24 1 3 -3 12 -1 19 5 8 6 20 9 28 6 8 -3 17 -3 21 1 4 4
11 8 16 8 5 1 10 2 12 3 1 2 13 4 27 7 14 2 70 13 125 23 103 20 161 31 205
37 65 11 97 15 125 18 17 2 44 6 60 9 17 4 48 9 70 11 22 3 65 8 95 12 30 4
69 8 85 9 17 2 48 5 70 8 36 5 73 9 230 22 324 26 955 27 1360 0 187 -12 436
-37 596 -60 20 -3 54 -8 75 -11 22 -3 48 -7 59 -9 11 -2 45 -6 75 -10 30 -4
58 -9 61 -11 4 -2 26 -6 50 -9 23 -3 62 -10 86 -15 24 -6 60 -13 81 -16 20 -3
40 -8 43 -10 4 -2 26 -6 49 -9 23 -3 51 -10 61 -16 11 -5 19 -8 19 -5 0 3 15
0 33 -5 17 -5 43 -11 57 -14 57 -11 70 -14 78 -19 5 -3 22 -8 38 -10 41 -8 62
-13 124 -31 30 -9 66 -18 79 -21 13 -3 31 -9 40 -13 9 -5 19 -10 23 -10 13 -2
31 -8 123 -39 124 -42 159 -56 166 -65 3 -5 9 -8 13 -7 19 6 372 -164 446
-215 155 -107 197 -142 310 -255 144 -145 219 -272 261 -446 38 -159 31 -418
-17 -594 -8 -30 -17 -63 -19 -72 -2 -9 -9 -26 -15 -38 -6 -12 -13 -29 -15 -38
-9 -50 -128 -261 -160 -284 -5 -4 -6 -8 -2 -8 5 0 2 -6 -5 -13 -7 -8 -35 -41
-62 -73 -87 -103 -257 -264 -372 -350 -62 -46 -116 -84 -122 -84 -6 0 -12 -3
-14 -8 -6 -14 -197 -122 -343 -194 -181 -90 -565 -240 -565 -222 0 4 -6 2 -12
-3 -11 -8 -156 -51 -193 -57 -5 -1 -16 -5 -22 -9 -7 -5 -13 -6 -13 -3 0 3 -12
1 -27 -5 -16 -6 -35 -12 -43 -14 -100 -24 -414 -95 -436 -99 -16 -2 -29 -5
-29 -6 0 -1 -9 -3 -20 -4 -25 -4 -83 -14 -115 -21 -36 -8 -69 -13 -120 -20
-25 -3 -52 -8 -60 -10 -8 -2 -37 -7 -65 -10 -92 -13 -100 -14 -150 -20 -27 -4
-63 -8 -80 -10 -16 -1 -30 -4 -30 -4 0 -1 -20 -4 -45 -5 -42 -4 -162 -14 -240
-22 -189 -18 -927 -26 -1035 -11 -22 3 -52 6 -66 6 -24 1 -26 5 -24 34 2 17 6
84 10 147 3 63 8 131 10 150 4 38 16 157 20 205 2 17 5 46 8 65 4 19 9 58 12
85 8 62 15 112 21 145 3 14 7 41 10 60 2 19 7 46 10 60 3 14 7 41 9 60 11 86
14 107 20 145 4 22 9 54 10 70 6 67 17 182 21 220 2 22 6 132 9 245 4 196 -3
273 -33 350 -3 8 -6 17 -7 20 -1 3 -9 22 -18 44 -9 21 -17 40 -17 42 0 24
-124 165 -193 221 -88 70 -292 116 -350 78 -31 -20 -66 -100 -82 -190 -3 -16
-14 -82 -26 -145 -11 -63 -22 -126 -24 -140 -2 -14 -7 -41 -10 -60 -4 -19 -8
-48 -10 -65 -2 -16 -6 -46 -10 -65 -3 -19 -7 -51 -10 -70 -2 -19 -6 -48 -9
-65 -14 -79 -35 -225 -41 -281 -2 -21 -6 -54 -10 -73 -3 -18 -8 -56 -11 -85
-3 -28 -7 -62 -9 -76 -9 -70 -15 -118 -20 -150 -7 -46 -14 -104 -20 -160 -3
-25 -7 -66 -10 -91 -9 -74 -24 -276 -29 -378 -3 -52 -11 -57 -71 -42 -80 20
-129 25 -255 25 -99 1 -135 -3 -173 -18 -50 -19 -87 -62 -87 -101 0 -41 35
-115 74 -158 70 -77 257 -188 429 -256 36 -15 57 -29 57 -40 1 -9 3 -146 5
-306 3 -280 11 -521 21 -615 2 -25 7 -74 10 -110 3 -36 7 -83 9 -105 3 -22 7
-65 10 -95 2 -30 7 -64 9 -75 2 -12 8 -48 12 -80 4 -33 9 -62 9 -65 1 -3 5
-27 9 -55 4 -27 10 -57 13 -65 3 -8 7 -28 9 -45 2 -16 6 -39 8 -50 3 -11 13
-53 21 -94 25 -115 54 -182 97 -225 36 -36 41 -38 80 -32 27 4 53 17 69 34 31
31 83 118 94 153 3 13 13 38 20 54 15 34 79 259 91 320 10 51 11 54 14 58 1 1
3 11 5 22 4 25 15 91 21 119 6 28 41 259 48 316 4 25 8 56 10 70 6 31 17 142
20 190 1 20 4 40 7 45 3 6 5 27 5 47 -1 21 1 38 4 38 3 0 5 15 6 33 0 17 4 61
7 97 4 36 9 82 11 103 2 21 6 41 9 44 3 2 38 -3 79 -11 40 -9 84 -19 98 -22
14 -3 34 -7 45 -9 36 -8 278 -73 335 -90 30 -9 62 -17 70 -19 30 -8 317 -105
395 -134 120 -45 316 -122 352 -138 17 -8 34 -14 38 -14 3 0 25 -8 48 -19 23
-10 98 -42 167 -71 69 -28 143 -60 165 -70 22 -10 61 -27 88 -39 26 -11 67
-30 91 -41 25 -11 49 -20 54 -20 5 0 15 -7 22 -15 7 -9 15 -14 17 -11 3 2 30
-8 61 -23 31 -16 82 -40 112 -54 30 -14 135 -64 233 -111 97 -47 179 -86 182
-87 38 -12 1233 -625 1250 -640 5 -5 17 -9 26 -9 10 0 19 -3 21 -7 2 -5 107
-60 233 -123 127 -63 232 -117 235 -120 9 -9 576 -286 695 -340 28 -12 88 -40
135 -62 47 -22 99 -46 115 -53 17 -7 50 -22 75 -32 54 -24 236 -90 270 -98 3
-1 23 -6 45 -13 22 -6 51 -13 65 -16 14 -2 36 -7 50 -10 101 -22 375 -27 487
-9 258 41 407 190 338 338 -35 73 -100 123 -200 155 -22 7 -44 15 -50 19 -5 3
-14 6 -20 8 -5 1 -32 10 -60 21 -27 11 -95 36 -150 57 -161 60 -328 126 -357
141 -14 8 -30 14 -36 14 -5 0 -27 8 -48 17 -22 9 -41 17 -44 18 -6 2 -19 7
-160 67 -63 26 -121 48 -127 48 -7 0 -13 5 -13 10 0 6 -7 10 -16 10 -8 0 -36
9 -62 21 -26 12 -60 27 -77 34 -74 31 -164 69 -205 88 -55 24 -66 28 -265 112
-88 37 -180 76 -205 87 -25 11 -58 26 -75 33 -61 26 -181 78 -220 95 -22 10
-116 50 -210 90 -165 70 -192 82 -282 121 -91 40 -130 57 -193 84 -36 15 -83
35 -105 45 -22 10 -89 39 -150 64 -115 50 -147 64 -205 89 -19 9 -116 50 -215
93 -99 42 -196 84 -215 92 -19 9 -37 16 -40 17 -9 3 -84 35 -115 49 -45 21
-208 90 -310 130 -104 42 -133 55 -159 68 -10 5 -26 11 -35 13 -9 2 -65 25
-126 50 -60 25 -116 45 -122 45 -7 0 -13 4 -13 8 0 5 -6 9 -12 9 -13 0 -200
70 -298 111 l-25 11 25 2 c49 5 65 7 70 9 3 0 23 3 45 5 22 2 60 7 85 11 25 3
61 8 80 10 19 1 51 6 70 10 19 3 49 8 65 9 17 2 86 15 154 29 68 14 128 23
133 20 4 -3 8 0 8 7 0 7 3 10 6 7 3 -3 29 0 57 8 29 7 63 15 77 18 22 5 228
59 270 71 8 2 35 9 60 16 25 6 54 14 65 19 11 5 77 27 146 49 201 64 393 136
517 192 35 16 69 29 76 29 8 0 19 7 26 15 7 8 18 15 24 15 24 0 440 222 491
262 6 5 46 31 90 59 44 29 82 55 85 58 3 4 21 18 40 31 80 54 250 201 350 301
181 181 307 353 422 579 38 73 112 264 122 311 3 13 8 35 11 49 3 14 8 36 11
50 2 14 6 35 9 47 13 56 19 161 19 308 0 149 -3 192 -19 270 -3 17 -8 39 -10
51 -7 44 -38 149 -46 158 -5 6 -9 17 -9 26 0 15 -97 220 -109 230 -3 3 -12 17
-20 32 -49 95 -289 357 -436 475 -77 62 -268 193 -281 193 -3 0 -18 8 -32 18
-15 11 -63 38 -107 62 -44 23 -86 47 -94 54 -8 6 -17 11 -20 10 -3 0 -52 21
-109 48 -57 26 -106 48 -110 48 -3 0 -24 8 -46 19 -42 19 -73 32 -91 37 -5 1
-48 17 -95 34 -73 27 -334 109 -365 114 -5 1 -35 10 -65 19 -50 14 -324 85
-360 92 -8 2 -15 4 -15 5 0 1 -15 3 -34 6 -19 2 -53 9 -75 15 -23 6 -52 13
-66 15 -14 2 -36 7 -50 10 -14 3 -43 8 -64 10 -22 3 -43 7 -46 9 -4 2 -35 9
-71 14 -63 10 -124 20 -164 26 -11 2 -31 6 -45 9 -36 7 -86 14 -153 21 -32 4
-68 9 -80 12 -12 2 -42 6 -67 8 -25 2 -63 6 -85 9 -120 16 -290 31 -465 42
-58 3 -130 8 -160 10 -74 6 -827 13 -832 9z"/>
</g>
</svg>
