<svg xmlns="http://www.w3.org/2000/svg" version="1.1" xmlns:xlink="http://www.w3.org/1999/xlink" xmlns:svgjs="http://svgjs.com/svgjs" width="1000" height="1000">
  <g transform="matrix(7.518796992481203,0,0,7.518796992481203,0.6967302480138073,150.90289797325778)">
    <svg xmlns="http://www.w3.org/2000/svg" version="1.1" xmlns:xlink="http://www.w3.org/1999/xlink" xmlns:svgjs="http://svgjs.com/svgjs" width="133" height="93">
      <svg xmlns="http://www.w3.org/2000/svg" viewBox="0 0 133 93">
        <path fill="#1e3c74" d="M130.8 86.77c.77.3 1.34.83 1.72 1.56.39.73.35 1.48-.11 2.25-.47.77-1.43 1.38-2.88 1.84-1.47.47-3.62.54-6.46.23-1.84-.15-4.37-.96-7.6-2.42-3.23-1.46-6.9-3.23-11-5.3-4.11-2.07-8.53-4.34-13.26-6.8A401.39 401.39 0 0 0 76.81 71a193.5 193.5 0 0 0-14.52-6.17 80.5 80.5 0 0 0-13.43-3.86c-.23 2.38-.5 4.86-.8 7.43-.31 2.57-.7 4.94-1.16 7.1-.46 2.15-1 3.91-1.61 5.3-.61 1.38-1.3 2.07-2.08 2.07-.84 0-1.49-.98-1.95-2.94a61.35 61.35 0 0 1-1.16-6.69c-.3-2.5-.5-4.91-.57-7.26-.08-2.34-.12-3.86-.12-4.55V57.4a21.31 21.31 0 0 1-4.95-2.48c-1.39-.96-2.08-1.98-2.08-3.05 0-.39.23-.73.7-1.04.45-.3 1.3-.46 2.53-.46 1.15 0 2.5.2 4.03.58l.23-3.29c.08-1.11.21-2.44.4-3.97l.7-5.42c.27-2.07.63-4.57 1.1-7.5.45-2.91.82-4.8 1.09-5.64.27-.85.67-1.27 1.2-1.27 1.31 0 2.43.29 3.35.87a7.82 7.82 0 0 1 3.51 4.67c.27.92.4 1.69.4 2.3 0 3.77-.32 7.53-.97 11.3a87.48 87.48 0 0 0-1.21 11.63c2.69.23 5.95.3 9.8.18a99.97 99.97 0 0 0 24.71-3.98 46.97 46.97 0 0 0 11.3-4.9 28.25 28.25 0 0 0 8.12-7.26 16.29 16.29 0 0 0 3.11-9.97c0-2.91-.9-5.43-2.7-7.54a22.57 22.57 0 0 0-7.04-5.36 47.14 47.14 0 0 0-9.62-3.57 94.07 94.07 0 0 0-10.54-2.14c-3.5-.5-6.79-.83-9.86-.98a154.9 154.9 0 0 0-7.37-.23c-6.76 0-13.4.62-19.94 1.85a73.65 73.65 0 0 0-18.78 6.22 70.67 70.67 0 0 0-5.02 2.65c-1.57.92-3.4 1.96-5.47 3.11-.23.23-.9.71-2.02 1.44a24.6 24.6 0 0 1-3.45 1.9c-1.2.54-2.27.81-3.23.81S0 26.24 0 25.01c0-1.3.52-2.56 1.56-3.75a70.48 70.48 0 0 1 3.16-3.4 49.77 49.77 0 0 1 11.3-8.46 69.39 69.39 0 0 1 13.02-5.48 84.63 84.63 0 0 1 13.89-3c4.71-.61 9.38-.92 14-.92 2.46 0 5.57.13 9.33.4 3.77.27 7.74.77 11.93 1.5 4.19.73 8.41 1.75 12.67 3.06a49.06 49.06 0 0 1 11.47 5.07 27.73 27.73 0 0 1 8.24 7.54A17.48 17.48 0 0 1 113.74 28c0 3.15-.65 6.11-1.96 8.88a27.51 27.51 0 0 1-5.3 7.54 40.4 40.4 0 0 1-7.9 6.17 57.86 57.86 0 0 1-9.73 4.72 89.64 89.64 0 0 1-10.72 3.29 74.13 74.13 0 0 1-10.95 1.78c4.38 1.61 9.3 3.6 14.75 5.94 5.46 2.34 11.03 4.74 16.71 7.2 5.69 2.46 11.3 4.86 16.83 7.2a300.4 300.4 0 0 0 15.32 6.05z"></path>
      </svg>
    </svg>
  </g>
</svg>