<svg 
xmlns="http://www.w3.org/2000/svg" 
viewBox="0 0 350 95"
>
  <path fill="#1e3c74" d="M130.8 86.77q1.15.46 1.72 1.56.58 1.1-.11 2.25-.7 1.15-2.88 1.84-2.2.7-6.46.23-2.76-.23-7.6-2.42t-11-5.3q-6.17-3.11-13.26-6.8T76.81 71q-7.32-3.46-14.52-6.17-7.2-2.7-13.43-3.86-.34 3.57-.8 7.43-.47 3.86-1.16 7.1-.69 3.22-1.61 5.3-.92 2.07-2.08 2.07-1.26 0-1.95-2.94-.7-2.94-1.16-6.69-.46-3.74-.57-7.26-.12-3.51-.12-4.55V57.4q-2.88-1.04-4.95-2.48-2.08-1.44-2.08-3.05 0-.58.7-1.04.68-.46 2.53-.46 1.73 0 4.03.58l.23-3.29q.12-1.67.4-3.97l.7-5.42q.4-3.11 1.1-7.5.68-4.37 1.09-5.64.4-1.27 1.2-1.27 1.97 0 3.35.87 1.38.86 2.25 2.07.86 1.21 1.26 2.6.4 1.38.4 2.3 0 5.65-.97 11.3-.98 5.64-1.21 11.63 4.03.35 9.8.18 5.75-.18 12.1-1.16 6.33-.98 12.61-2.82 6.28-1.84 11.3-4.9 5-3.05 8.12-7.26 3.11-4.2 3.11-9.97 0-4.37-2.7-7.54-2.72-3.17-7.04-5.36-4.32-2.2-9.62-3.57-5.3-1.39-10.54-2.14-5.25-.75-9.86-.98-4.6-.23-7.37-.23-10.14 0-19.94 1.85-9.8 1.84-18.78 6.22-2.65 1.27-5.02 2.65-2.36 1.38-5.47 3.11-.34.35-2.02 1.44-1.67 1.1-3.45 1.9-1.79.81-3.23.81T0 25.01q0-1.96 1.56-3.75 1.55-1.78 3.16-3.4Q9.8 12.8 16.02 9.4 22.24 6 29.04 3.92q6.8-2.08 13.89-3Q50 0 56.93 0q3.69 0 9.33.4 5.65.4 11.93 1.5Q84.47 3 90.86 4.96q6.4 1.95 11.47 5.07 5.07 3.1 8.24 7.54 3.17 4.44 3.17 10.43 0 4.73-1.96 8.88-1.96 4.14-5.3 7.54-3.34 3.4-7.9 6.17-4.55 2.77-9.73 4.72-5.19 1.96-10.72 3.29-5.53 1.32-10.95 1.78 6.57 2.42 14.75 5.94 8.19 3.51 16.71 7.2 8.53 3.69 16.83 7.2 8.3 3.52 15.32 6.05zm1.84-32.03q-.92 1.27-2.3 2.07-1.39.8-3 1.33-1.62.52-3.29.75-1.67.23-2.94.34-.34 2.42-.4 4.73-.06 2.3.23 4.15.29 1.84.92 3.1.64 1.27 1.79 1.62 1.5.46 3.23-.52t3.34-2.7q1.61-1.73 3.11-4.04 1.5-2.3 2.65-4.44 1.15-2.13 1.96-3.91.8-1.8 1.04-2.6.34-1.03 1.1-1.38.74-.35 1.43-.23.7.11 1.15.75.47.63.23 1.67-.23.7-.8 2.7-.58 2.02-1.67 4.56-1.1 2.53-2.65 5.24-1.56 2.71-3.75 4.96-2.19 2.24-5.01 3.74t-6.28 1.5q-4.15 0-6.46-2.88-2.3-2.88-3.1-7.26-.81-4.38-.3-9.4.52-5 2.08-9.38 1.56-4.38 3.92-7.26t5.24-2.88q2.77 0 4.9 1.9 2.13 1.9 3.28 4.43 1.16 2.54 1.33 5.19.17 2.65-.98 4.15zm-7.15-10.26q-.8.35-1.72 2.94-.93 2.6-1.73 6.28 1.26 0 2.53-.29 1.27-.29 1.85-1.2.46-.7.57-2.02.12-1.33-.06-2.71-.17-1.38-.57-2.3-.4-.93-.87-.7zm13.95 4.61q.34-2.3 1.96-3.46 1.61-1.15 3.28-1.26 1.67-.12 2.94.69 1.27.8 1.04 2.53-.23 1.62-.64 3.63-.4 2.02-.75 4.04-.34 2.01-.51 3.8-.18 1.79-.06 2.94.92-3.11 2.13-5.6 1.2-2.47 2.48-4.2.92-1.15 2.53-1.78 1.62-.64 3.11-.58 1.5.06 2.42.86.93.81.35 2.3-.35 1.05-.63 3.24-.3 2.19-.3 4.43 0 2.25.24 3.92.23 1.67.8 1.67.7 0 1.85-1.27 1.15-1.26 2.3-3.05 1.16-1.79 2.14-3.8.97-2.02 1.44-3.52.23-1.03.98-1.38.74-.35 1.44-.23.69.11 1.15.75.46.63.23 1.67-.35 1.61-1.61 4.38-1.27 2.76-3 5.41-1.73 2.66-3.8 4.67-2.08 2.02-4.04 2.02-3.34 0-4.78-1.79-1.44-1.78-1.9-4.03-.46-2.25-.35-4.38.12-2.13-.11-2.7-.58.22-1.21 1.6-.64 1.39-1.21 3.23-.58 1.85-1.04 3.86-.46 2.02-.58 3.4-.23 1.5-1.55 2.25-1.33.75-2.88.75-1.56 0-2.83-.8-1.26-.82-1.15-2.54.12-1.96 0-4.73l-.23-5.82q-.11-3.05-.11-5.93t.46-5.19zm65.68 1.5V44.3l.18-7.78q.17-7.78.57-7.84.4-.05 1.1-6.56.57-1.16 2.07-.93 1.5.23 3 1.27t2.65 2.36q1.15 1.33 1.15 2.14 0 3.34-.46 7.03-.46 3.68-.46 6.56-.23 3.12-.29 6.4-.06 3.28-.35 6.57-.28 3.28-.98 6.4-.69 3.1-2.18 5.76-.23.46-.64 1.15-.4.69-.92 1.32-.52.64-1.1 1.1-.57.46-1.03.46-.92 0-1.44-1.9-.52-1.9-.7-4.78-.17-2.89-.17-6.23zm7.84-33.19q-4.61 0-8.99.8-4.38.81-8.7 2.08-4.32 1.27-8.76 3.06-4.43 1.78-9.16 3.63-.34.23-1.2.51-.87.3-1.74.47-.86.17-1.55-.12-.7-.29-.7-1.33 0-1.03.64-2.07.63-1.04 1.2-1.61 3.35-4.38 8.02-7.38t9.97-4.78q5.3-1.79 10.89-2.6 5.59-.8 10.77-.8 9.1 0 18.1 2.48 8.98 2.48 16.18 7.2 7.2 4.72 11.7 11.58 4.5 6.86 4.5 15.5 0 6.22-2.31 11.3-2.3 5.06-6.17 9.1-3.86 4.03-8.98 6.91-5.13 2.88-10.78 4.84-5.65 1.96-11.52 2.88-5.88.92-11.18.92-10.6 0-20.86-2.47-10.25-2.48-19.24-7.44h.11q-.92-.46-2.01-1.15-1.1-.69-2.08-1.44t-1.61-1.44q-.64-.69-.64-1.27 0-.57.7-.57.69 0 1.6.23.93.23 1.85.63t1.39.52q8.98 2.88 17.92 4.5 8.93 1.6 18.72 1.72 3.69 0 8.59-.57 4.9-.58 9.96-1.9 5.07-1.33 9.97-3.46t8.76-5.3q3.86-3.17 6.22-7.38 2.37-4.2 2.37-9.62 0-5.07-2.25-9.05-2.25-3.97-5.88-6.85-3.63-2.88-8.18-4.84t-9.22-3.17q-4.67-1.21-8.99-1.73t-7.43-.52Zm76.29 37.34q-.93 1.27-2.3 2.07-1.4.8-3 1.33-1.62.52-3.29.75-1.67.23-2.94.34-.34 2.42-.4 4.73-.06 2.3.23 4.15.29 1.84.92 3.1.64 1.27 1.79 1.62 1.5.46 3.22-.52 1.73-.98 3.35-2.7 1.61-1.73 3.1-4.04 1.5-2.3 2.66-4.44 1.15-2.13 1.96-3.91.8-1.8 1.03-2.6.35-1.03 1.1-1.38.75-.35 1.44-.23.7.11 1.15.75.46.63.23 1.67-.23.7-.8 2.7-.58 2.02-1.67 4.56-1.1 2.53-2.66 5.24-1.55 2.71-3.74 4.96-2.19 2.24-5.01 3.74-2.83 1.5-6.28 1.5-4.15 0-6.46-2.88-2.3-2.88-3.1-7.26-.82-4.38-.3-9.4.52-5 2.08-9.38 1.55-4.38 3.92-7.26 2.36-2.88 5.24-2.88 2.76 0 4.9 1.9 2.13 1.9 3.28 4.43 1.15 2.54 1.33 5.19.17 2.65-.98 4.15zm-7.15-10.26q-.8.35-1.73 2.94-.92 2.6-1.73 6.28 1.27 0 2.54-.29t1.84-1.2q.46-.7.58-2.02.12-1.33-.06-2.71-.17-1.38-.57-2.3-.4-.93-.87-.7zm27.08-1.04q1.62.35 2.83 1.5 1.2 1.16 2.01 2.54.92-1.04 2.3-1.15 1.39-.12 2.66.4 1.27.52 2.07 1.61.8 1.1.58 2.6-.46 2.07-.87 5.18-.4 3.11-.51 6-.12 2.87.17 4.95.29 2.07 1.2 2.07.7 0 1.68-1.78.98-1.79 1.96-4.21t1.78-4.84q.81-2.42 1.04-3.69.35-1.15 1.15-1.55.81-.4 1.56-.23t1.27.86q.52.7.17 1.73-.23.7-.75 2.6-.52 1.9-1.32 4.2-.81 2.3-1.9 4.78-1.1 2.48-2.54 4.38t-3.23 2.94q-1.78 1.04-3.86.46-3.34-.92-4.84-4.03-.92 2.76-2.53 5-1.62 2.26-4.15 3.3-2.42.8-4.27.34-3.34-.92-5.3-4.15-1.96-3.23-2.65-7.49t-.11-8.87q.57-4.61 2.36-8.3 1.79-3.69 4.78-5.82 3-2.13 7.26-1.33zm3 11.64q-.23-1.96-.87-3.8-.63-1.84-1.9-2.07-1.84-.35-3.28 1.32-1.44 1.67-2.36 4.44-.93 2.76-1.33 6.05-.4 3.28-.23 6.22t.92 5.01q.75 2.08 2.25 2.3 1.5.24 2.82-1.6 1.33-1.85 2.3-4.73.99-2.88 1.5-6.4.52-3.51.18-6.74zm17.86-28.34q0-2.77 1.5-3.87 1.5-1.09 3.28-.97 1.79.11 3.11 1.26 1.33 1.16.98 3-.23 1.38-.74 5.42-.52 4.03-.98 9.27-.47 5.25-.81 10.9-.35 5.64-.4 10.42-.06 4.78.34 7.84.4 3.05 1.56 3.05.69 0 1.9-2.53 1.2-2.54 2.42-5.77 1.2-3.22 2.25-6.28 1.03-3.05 1.38-3.97.23-1.04 1.04-1.39.8-.34 1.55-.17t1.27.8q.52.64.17 1.68-.69 2.3-1.84 6.45-1.15 4.15-2.88 8.18-1.73 4.04-4.15 7.03-2.42 3-5.76 3-3.11 0-4.67-3.28-1.56-3.29-2.13-8.36-.58-5.07-.4-11.3.17-6.21.63-12.15.46-5.93.92-10.83t.46-7.43z"/>
</svg> 